<svg width="96" height="21" viewBox="0 0 96 21" fill="none" xmlns="http://www.w3.org/2000/svg">
<path d="M95.1033 9.95591C95.1033 11.624 94.7621 15.384 91.0086 17.9524C90.0374 18.6144 89.0925 19.0645 87.99 19.3822C86.9139 19.7 85.2865 20.0177 82.6617 20.0177C78.7244 20.0177 76.3358 19.1439 74.8397 18.2437C74.341 17.9524 73.4223 17.3434 72.5036 16.2313C70.535 13.8218 70.4562 11.3857 70.4562 10.1942C70.4562 5.48104 72.9498 3.12446 74.4722 2.0918C76.0471 1.00618 78.3045 0.0529578 82.4517 0C83.2916 0 84.1053 0 84.9453 0.079436C89.8537 0.476613 92.1373 2.43602 93.4234 4.28951C94.0271 5.18978 95.1033 7.12271 95.1033 9.95591ZM88.2788 10.0089C88.2788 7.6258 87.2813 6.11653 86.5989 5.50752C86.3364 5.24274 85.7065 4.76612 84.814 4.44838C84.3415 4.28951 83.8428 4.15712 82.8454 4.15712C81.9792 4.15712 81.2705 4.23656 80.4568 4.58078C78.2782 5.50752 77.2808 7.75819 77.2808 10.0353C77.2808 10.3796 77.307 11.3328 77.6482 12.3125C78.7507 15.6488 81.743 15.8871 82.8716 15.8871C83.1866 15.8871 84.3678 15.8871 85.3652 15.4369C87.4388 14.5102 88.2788 12.1271 88.2788 10.0089Z" fill="#141414"/>
<path d="M68.6396 10.2472C68.6396 11.0945 68.5608 14.1396 66.671 16.3638C66.356 16.7609 65.6998 17.4229 64.5973 18.0584C64.2036 18.2702 63.3637 18.7203 62.235 19.0116C61.2901 19.2499 60.6076 19.3823 58.744 19.3823H46.9848V0.688477H57.5103C58.2453 0.688477 58.9802 0.714955 59.7152 0.767913C64.0199 1.13861 65.9098 2.96563 67.0122 4.58082C68.5871 6.85797 68.6396 9.24104 68.6396 10.2472ZM62.1563 10.0883C62.1563 9.50582 62.0775 7.41402 60.4501 6.14305C59.059 5.08391 57.0904 5.13687 56.6441 5.13687H53.4681V15.1457H56.8541C57.2216 15.1457 57.6153 15.1193 58.009 15.0663C60.2926 14.775 61.1063 13.7424 61.5526 12.7892C62.13 11.5976 62.1563 10.5914 62.1563 10.0883Z" fill="#141414"/>
<path d="M43.8229 19.3823H24.0318V0.688477H43.5867V4.87208H30.6726V7.94359H42.6155V12.1537H30.6726V15.1457H43.8229V19.3823Z" fill="#141414"/>
<path d="M21.3398 19.3823H14.0165L10.1843 12.5773H6.66705V19.3823H0V0.688477H13.6491C16.1426 0.688477 18.5312 0.873825 20.0274 3.25689C20.3686 3.81294 20.9723 4.92504 20.9723 6.61966C20.9723 7.49345 20.7886 9.98243 18.4525 11.2799C18.0063 11.5447 17.665 11.6771 16.7201 11.9154L21.3398 19.3823ZM14.3578 6.64614C14.3578 6.48727 14.3315 6.06361 14.069 5.69292C13.6228 5.03095 12.8879 4.92504 12.1792 4.92504H6.66705V8.36724H11.6542C12.9141 8.36724 13.5703 8.20837 13.9903 7.70528C14.3315 7.28163 14.3578 6.85797 14.3578 6.64614Z" fill="#141414"/>
</svg>
