<svg width="800" height="255" viewBox="0 0 800 255" fill="none" xmlns="http://www.w3.org/2000/svg">
<path fill-rule="evenodd" clip-rule="evenodd" d="M800 0H0V255H800V0ZM745.57 126.149C745.57 138.234 743.088 165.472 715.79 184.078C708.727 188.874 701.855 192.135 693.837 194.437C686.011 196.739 674.175 199.04 655.085 199.04C626.451 199.04 609.079 192.71 598.198 186.188C594.571 184.078 587.89 179.667 581.209 171.61C566.891 154.155 566.319 136.507 566.319 127.876C566.319 93.7318 584.454 76.6599 595.526 69.179C606.979 61.3144 623.397 54.4089 653.558 54.0253C659.667 54.0253 665.585 54.0253 671.693 54.6008C707.391 57.478 723.999 71.6726 733.353 85.0999C737.743 91.6218 745.57 105.625 745.57 126.149ZM695.937 126.533C695.937 109.269 688.683 98.3354 683.72 93.9236C681.811 92.0054 677.229 88.5527 670.739 86.2509C667.303 85.0999 663.676 84.1409 656.422 84.1409C650.122 84.1409 644.968 84.7163 639.05 87.21C623.206 93.9236 615.952 110.228 615.952 126.725C615.952 129.218 616.143 136.124 618.624 143.221C626.642 167.39 648.404 169.117 656.612 169.117C658.903 169.117 667.494 169.117 674.748 165.856C689.828 159.142 695.937 141.878 695.937 126.533ZM553.106 128.259C553.106 134.397 552.533 156.457 538.789 172.569C536.498 175.447 531.725 180.242 523.708 184.846C520.844 186.38 514.736 189.641 506.527 191.751C499.655 193.478 494.691 194.437 481.138 194.437H395.616V59.0127H472.166C477.511 59.0127 482.856 59.2045 488.201 59.5881C519.508 62.2736 533.253 75.5091 541.27 87.21C552.724 103.706 553.106 120.97 553.106 128.259ZM505.954 127.108C505.954 122.888 505.382 107.735 493.546 98.5273C483.836 91.1636 470.258 91.2204 466.311 91.2369C466.146 91.2376 465.997 91.2382 465.866 91.2382H442.768V163.746H467.393C470.066 163.746 472.929 163.554 475.793 163.17C492.401 161.06 498.319 153.579 501.564 146.674C505.763 138.042 505.954 130.753 505.954 127.108ZM228.685 194.437H372.621V163.746H276.982V142.07H363.839V111.571H276.982V89.32H370.903V59.0127H228.685V194.437ZM209.107 194.437H155.847L127.976 145.139H102.396V194.437H53.9082V59.0127H153.174C171.309 59.0127 188.681 60.3554 199.562 77.6191C202.044 81.6473 206.434 89.7037 206.434 101.98C206.434 108.31 205.098 126.341 188.108 135.74C184.863 137.658 182.381 138.617 175.509 140.344L209.107 194.437ZM158.328 102.172C158.328 101.021 158.137 97.9519 156.228 95.2664C152.983 90.4709 147.638 89.7037 142.484 89.7037H102.396V114.64H138.666C147.829 114.64 152.601 113.489 155.656 109.845C158.137 106.776 158.328 103.706 158.328 102.172Z" fill="#141414"/>
</svg>
